NL.ufo
<glyph name="numbersign" format="1">
  <advance width="569"/>
  <unicode hex="0023"/>
  <outline>
    <contour>
      <point x="203" y="220" type="line" smooth="no"/>
      <point x="188" y="108" type="line" smooth="no"/>
      <point x="124" y="103" type="line" smooth="no"/>
      <point x="140" y="220" type="line" smooth="no"/>
      <point x="38" y="220" type="line" smooth="no"/>
      <point x="53" y="281" type="line" smooth="no"/>
      <point x="151" y="281" type="line" smooth="no"/>
      <point x="170" y="409" type="line" smooth="no"/>
      <point x="72" y="409" type="line" smooth="no"/>
      <point x="86" y="470" type="line" smooth="no"/>
      <point x="180" y="470" type="line" smooth="no"/>
      <point x="198" y="576" type="line" smooth="no"/>
      <point x="260" y="582" type="line" smooth="no"/>
      <point x="242" y="470" type="line" smooth="no"/>
      <point x="366" y="470" type="line" smooth="no"/>
      <point x="383" y="576" type="line" smooth="no"/>
      <point x="445" y="581" type="line" smooth="no"/>
      <point x="428" y="470" type="line" smooth="no"/>
      <point x="530" y="470" type="line" smooth="no"/>
      <point x="516" y="409" type="line" smooth="no"/>
      <point x="418" y="409" type="line" smooth="no"/>
      <point x="399" y="281" type="line" smooth="no"/>
      <point x="496" y="281" type="line" smooth="no"/>
      <point x="482" y="220" type="line" smooth="no"/>
      <point x="388" y="220" type="line" smooth="no"/>
      <point x="374" y="108" type="line" smooth="no"/>
      <point x="310" y="103" type="line" smooth="no"/>
      <point x="326" y="220" type="line" smooth="no"/>
    </contour>
    <contour>
      <point x="213" y="281" type="line" smooth="no"/>
      <point x="336" y="281" type="line" smooth="no"/>
      <point x="356" y="409" type="line" smooth="no"/>
      <point x="232" y="409" type="line" smooth="no"/>
    </contour>
  </outline>
</glyph>
<glyph name="percent" format="1">
  <advance width="653"/>
  <unicode hex="0025"/>
  <outline>
    <contour>
      <point x="438" y="128" type="curve" smooth="yes"/>
      <point x="438" y="72"/>
      <point x="461" y="28"/>
      <point x="506" y="28" type="curve" smooth="yes"/>
      <point x="557" y="28"/>
      <point x="571" y="71"/>
      <point x="571" y="129" type="curve" smooth="yes"/>
      <point x="571" y="186"/>
      <point x="551" y="231"/>
      <point x="505" y="231" type="curve" smooth="yes"/>
      <point x="453" y="231"/>
      <point x="438" y="182"/>
    </contour>
    <contour>
      <point x="647" y="128" type="curve" smooth="yes"/>
      <point x="647" y="48"/>
      <point x="577" y="-21"/>
      <point x="506" y="-21" type="curve" smooth="yes"/>
      <point x="429" y="-21"/>
      <point x="362" y="39"/>
      <point x="362" y="129" type="curve" smooth="yes"/>
      <point x="362" y="209"/>
      <point x="431" y="280"/>
      <point x="505" y="280" type="curve" smooth="yes"/>
      <point x="591" y="280"/>
      <point x="647" y="213"/>
    </contour>
    <contour>
      <point x="90" y="437" type="curve" smooth="yes"/>
      <point x="90" y="381"/>
      <point x="113" y="338"/>
      <point x="158" y="338" type="curve" smooth="yes"/>
      <point x="209" y="338"/>
      <point x="223" y="381"/>
      <point x="223" y="438" type="curve" smooth="yes"/>
      <point x="223" y="495"/>
      <point x="203" y="540"/>
      <point x="157" y="540" type="curve" smooth="yes"/>
      <point x="105" y="540"/>
      <point x="90" y="491"/>
    </contour>
    <contour>
      <point x="299" y="438" type="curve" smooth="yes"/>
      <point x="299" y="357"/>
      <point x="229" y="288"/>
      <point x="158" y="288" type="curve" smooth="yes"/>
      <point x="81" y="288"/>
      <point x="15" y="348"/>
      <point x="15" y="439" type="curve" smooth="yes"/>
      <point x="15" y="519"/>
      <point x="83" y="589"/>
      <point x="157" y="589" type="curve" smooth="yes"/>
      <point x="243" y="589"/>
      <point x="299" y="523"/>
    </contour>
    <contour>
      <point x="495" y="591" type="line" smooth="no"/>
      <point x="563" y="586" type="line" smooth="no"/>
      <point x="166" y="-23" type="line" smooth="no"/>
      <point x="93" y="-17" type="line" smooth="no"/>
    </contour>
  </outline>
</glyph>
<glyph name="three" format="1">
  <advance width="432"/>
  <unicode hex="0033"/>
  <outline>
    <contour>
      <point x="77" y="-33" type="curve" smooth="no"/>
      <point x="81" y="-59"/>
      <point x="106" y="-127"/>
      <point x="164" y="-127" type="curve" smooth="yes"/>
      <point x="276" y="-127"/>
      <point x="304" y="-52"/>
      <point x="304" y="18" type="curve" smooth="yes"/>
      <point x="304" y="88"/>
      <point x="224" y="174"/>
      <point x="150" y="174" type="curve" smooth="yes"/>
      <point x="140" y="174" type="line" smooth="no"/>
      <point x="134" y="214" type="line" smooth="no"/>
      <point x="158" y="222"/>
      <point x="280" y="291"/>
      <point x="280" y="401" type="curve" smooth="yes"/>
      <point x="280" y="454"/>
      <point x="259" y="504"/>
      <point x="204" y="504" type="curve" smooth="yes"/>
      <point x="139" y="504"/>
      <point x="112" y="468"/>
      <point x="89" y="413" type="curve" smooth="no"/>
      <point x="42" y="429" type="line" smooth="no"/>
      <point x="54" y="493"/>
      <point x="131" y="585"/>
      <point x="239" y="585" type="curve" smooth="yes"/>
      <point x="331" y="585"/>
      <point x="384" y="521"/>
      <point x="384" y="433" type="curve" smooth="yes"/>
      <point x="384" y="338"/>
      <point x="310" y="270"/>
      <point x="262" y="240" type="curve" smooth="no"/>
      <point x="262" y="233" type="line" smooth="no"/>
      <point x="359" y="206"/>
      <point x="412" y="132"/>
      <point x="412" y="54" type="curve" smooth="yes"/>
      <point x="412" y="-49"/>
      <point x="312" y="-180"/>
      <point x="152" y="-180" type="curve" smooth="yes"/>
      <point x="47" y="-180"/>
      <point x="-0" y="-136"/>
      <point x="-0" y="-96" type="curve" smooth="yes"/>
      <point x="-0" y="-66"/>
      <point x="27" y="-38"/>
    </contour>
  </outline>
</glyph>
<glyph name="four" format="1">
  <advance width="582"/>
  <unicode hex="0034"/>
  <outline>
    <contour>
      <point x="328" y="-184" type="line" smooth="no"/>
      <point x="328" y="54" type="line" smooth="no"/>
      <point x="34" y="54" type="line" smooth="no"/>
      <point x="20" y="99" type="line" smooth="no"/>
      <point x="395" y="597" type="line" smooth="no"/>
      <point x="434" y="586" type="line" smooth="no"/>
      <point x="430" y="514"/>
      <point x="428" y="372"/>
      <point x="428" y="262" type="curve" smooth="yes"/>
      <point x="428" y="128" type="line" smooth="no"/>
      <point x="582" y="128" type="line" smooth="no"/>
      <point x="572" y="52" type="line" smooth="no"/>
      <point x="429" y="52" type="line" smooth="no"/>
      <point x="429" y="-162" type="line" smooth="no"/>
    </contour>
    <contour>
      <point x="327" y="128" type="line" smooth="no"/>
      <point x="327" y="410" type="line" smooth="no"/>
      <point x="123" y="128" type="line" smooth="no"/>
    </contour>
  </outline>
</glyph>
<glyph name="five" format="1">
  <advance width="435"/>
  <unicode hex="0035"/>
  <outline>
    <contour>
      <point x="413" y="575" type="line" smooth="no"/>
      <point x="398" y="476" type="line" smooth="no"/>
      <point x="191" y="462" type="line" smooth="no"/>
      <point x="164" y="330" type="line" smooth="no"/>
      <point x="338" y="300"/>
      <point x="437" y="218"/>
      <point x="437" y="78" type="curve" smooth="yes"/>
      <point x="437" y="-46"/>
      <point x="318" y="-180"/>
      <point x="158" y="-180" type="curve" smooth="yes"/>
      <point x="43" y="-180"/>
      <point x="1" y="-139"/>
      <point x="1" y="-101" type="curve" smooth="yes"/>
      <point x="1" y="-71"/>
      <point x="26" y="-44"/>
      <point x="62" y="-37" type="curve" smooth="no"/>
      <point x="80" y="-62"/>
      <point x="124" y="-125"/>
      <point x="190" y="-125" type="curve" smooth="yes"/>
      <point x="268" y="-125"/>
      <point x="326" y="-48"/>
      <point x="326" y="39" type="curve" smooth="yes"/>
      <point x="326" y="159"/>
      <point x="256" y="224"/>
      <point x="91" y="243" type="curve" smooth="no"/>
      <point x="144" y="552" type="line" smooth="no"/>
    </contour>
  </outline>
</glyph>
<glyph name="less" format="1">
  <advance width="405"/>
  <unicode hex="003c"/>
  <outline>
    <contour>
      <point x="14" y="293" type="line" smooth="no"/>
      <point x="350" y="594" type="line" smooth="no"/>
      <point x="382" y="536" type="line" smooth="no"/>
      <point x="111" y="292" type="line" smooth="no"/>
      <point x="385" y="10" type="line" smooth="no"/>
      <point x="345" y="-50" type="line" smooth="no"/>
      <point x="15" y="276" type="line" smooth="no"/>
    </contour>
  </outline>
</glyph>
<glyph name="greater" format="1">
  <advance width="405"/>
  <unicode hex="003e"/>
  <outline>
    <contour>
      <point x="391" y="251" type="line" smooth="no"/>
      <point x="55" y="-50" type="line" smooth="no"/>
      <point x="23" y="9" type="line" smooth="no"/>
      <point x="296" y="257" type="line" smooth="no"/>
      <point x="20" y="534" type="line" smooth="no"/>
      <point x="60" y="594" type="line" smooth="no"/>
      <point x="390" y="268" type="line" smooth="no"/>
    </contour>
  </outline>
</glyph>
<glyph name="question" format="1">
  <advance width="364"/>
  <unicode hex="003f"/>
  <outline>
    <contour>
      <point x="17" y="698" type="curve" smooth="yes"/>
      <point x="17" y="730"/>
      <point x="41" y="780"/>
      <point x="136" y="780" type="curve" smooth="yes"/>
      <point x="230" y="780"/>
      <point x="344" y="675"/>
      <point x="344" y="521" type="curve" smooth="yes"/>
      <point x="344" y="377"/>
      <point x="170" y="398"/>
      <point x="170" y="308" type="curve" smooth="yes"/>
      <point x="170" y="284"/>
      <point x="174" y="262"/>
      <point x="183" y="232" type="curve" smooth="no"/>
      <point x="138" y="222" type="line" smooth="no"/>
      <point x="122" y="246"/>
      <point x="91" y="305"/>
      <point x="91" y="354" type="curve" smooth="yes"/>
      <point x="91" y="490"/>
      <point x="277" y="445"/>
      <point x="277" y="569" type="curve" smooth="yes"/>
      <point x="277" y="625"/>
      <point x="214" y="674"/>
      <point x="178" y="674" type="curve" smooth="yes"/>
      <point x="132" y="674"/>
      <point x="88" y="659"/>
      <point x="62" y="631" type="curve" smooth="no"/>
      <point x="42" y="639"/>
      <point x="17" y="665"/>
    </contour>
    <contour>
      <point x="235" y="55" type="curve" smooth="yes"/>
      <point x="235" y="12"/>
      <point x="201" y="-22"/>
      <point x="159" y="-22" type="curve" smooth="yes"/>
      <point x="117" y="-22"/>
      <point x="84" y="13"/>
      <point x="84" y="56" type="curve" smooth="yes"/>
      <point x="84" y="97"/>
      <point x="119" y="127"/>
      <point x="159" y="127" type="curve" smooth="yes"/>
      <point x="200" y="127"/>
      <point x="235" y="96"/>
    </contour>
  </outline>
</glyph>
<glyph name="H" format="1">
  <advance width="858"/>
  <unicode hex="0048"/>
  <outline>
    <contour>
      <point x="347" y="0" type="line" smooth="no"/>
      <point x="19" y="0" type="line" smooth="no"/>
      <point x="24" y="45" type="line" smooth="no"/>
      <point x="125" y="73" type="line" smooth="no"/>
      <point x="125" y="682" type="line" smooth="no"/>
      <point x="15" y="707" type="line" smooth="no"/>
      <point x="21" y="753" type="line" smooth="no"/>
      <point x="351" y="753" type="line" smooth="no"/>
      <point x="345" y="707" type="line" smooth="no"/>
      <point x="243" y="684" type="line" smooth="no"/>
      <point x="243" y="419" type="line" smooth="no"/>
      <point x="623" y="419" type="line" smooth="no"/>
      <point x="623" y="682" type="line" smooth="no"/>
      <point x="512" y="707" type="line" smooth="no"/>
      <point x="519" y="753" type="line" smooth="no"/>
      <point x="849" y="753" type="line" smooth="no"/>
      <point x="842" y="707" type="line" smooth="no"/>
      <point x="741" y="684" type="line" smooth="no"/>
      <point x="741" y="69" type="line" smooth="no"/>
      <point x="851" y="49" type="line" smooth="no"/>
      <point x="845" y="0" type="line" smooth="no"/>
      <point x="516" y="0" type="line" smooth="no"/>
      <point x="523" y="45" type="line" smooth="no"/>
      <point x="623" y="73" type="line" smooth="no"/>
      <point x="623" y="358" type="line" smooth="no"/>
      <point x="243" y="357" type="line" smooth="no"/>
      <point x="243" y="69" type="line" smooth="no"/>
      <point x="355" y="49" type="line" smooth="no"/>
    </contour>
  </outline>
</glyph>
<glyph name="L" format="1">
  <advance width="645"/>
  <unicode hex="004c"/>
  <outline>
    <contour>
      <point x="356" y="753" type="line" smooth="no"/>
      <point x="350" y="707" type="line" smooth="no"/>
      <point x="246" y="679" type="line" smooth="no"/>
      <point x="246" y="58" type="line" smooth="no"/>
      <point x="514" y="58" type="line" smooth="no"/>
      <point x="593" y="208" type="line" smooth="no"/>
      <point x="645" y="200" type="line" smooth="no"/>
      <point x="622" y="0" type="line" smooth="no"/>
      <point x="23" y="0" type="line" smooth="no"/>
      <point x="28" y="45" type="line" smooth="no"/>
      <point x="129" y="73" type="line" smooth="no"/>
      <point x="129" y="677" type="line" smooth="no"/>
      <point x="15" y="707" type="line" smooth="no"/>
      <point x="23" y="753" type="line" smooth="no"/>
    </contour>
  </outline>
</glyph>
<glyph name="M" format="1">
  <advance width="1008"/>
  <unicode hex="004d"/>
  <outline>
    <contour>
      <point x="441" y="19" type="line" smooth="no"/>
      <point x="233" y="585" type="line" smooth="no"/>
      <point x="194" y="69" type="line" smooth="no"/>
      <point x="306" y="49" type="line" smooth="no"/>
      <point x="298" y="0" type="line" smooth="no"/>
      <point x="7" y="0" type="line" smooth="no"/>
      <point x="14" y="45" type="line" smooth="no"/>
      <point x="115" y="73" type="line" smooth="no"/>
      <point x="159" y="682" type="line" smooth="no"/>
      <point x="48" y="707" type="line" smooth="no"/>
      <point x="55" y="753" type="line" smooth="no"/>
      <point x="297" y="753" type="line" smooth="no"/>
      <point x="345" y="636" type="line" smooth="no"/>
      <point x="503" y="187" type="line" smooth="no"/>
      <point x="691" y="656" type="line" smooth="no"/>
      <point x="733" y="753" type="line" smooth="no"/>
      <point x="972" y="753" type="line" smooth="no"/>
      <point x="966" y="707" type="line" smooth="no"/>
      <point x="864" y="684" type="line" smooth="no"/>
      <point x="896" y="69" type="line" smooth="no"/>
      <point x="1006" y="49" type="line" smooth="no"/>
      <point x="1000" y="0" type="line" smooth="no"/>
      <point x="676" y="0" type="line" smooth="no"/>
      <point x="683" y="45" type="line" smooth="no"/>
      <point x="783" y="73" type="line" smooth="no"/>
      <point x="749" y="608" type="line" smooth="no"/>
      <point x="518" y="31" type="line" smooth="no"/>
    </contour>
  </outline>
</glyph>
<glyph name="O" format="1">
  <advance width="801"/>
  <unicode hex="004f"/>
  <outline>
    <contour>
      <point x="392" y="712" type="curve" smooth="yes"/>
      <point x="210" y="712"/>
      <point x="165" y="568"/>
      <point x="165" y="410" type="curve" smooth="yes"/>
      <point x="165" y="232"/>
      <point x="234" y="48"/>
      <point x="409" y="48" type="curve" smooth="yes"/>
      <point x="593" y="48"/>
      <point x="636" y="200"/>
      <point x="636" y="347" type="curve" smooth="yes"/>
      <point x="636" y="519"/>
      <point x="566" y="712"/>
    </contour>
    <contour>
      <point x="771" y="375" type="curve" smooth="yes"/>
      <point x="771" y="166"/>
      <point x="631" y="-16"/>
      <point x="379" y="-16" type="curve" smooth="yes"/>
      <point x="170" y="-16"/>
      <point x="30" y="156"/>
      <point x="30" y="375" type="curve" smooth="yes"/>
      <point x="30" y="608"/>
      <point x="180" y="771"/>
      <point x="421" y="771" type="curve" smooth="yes"/>
      <point x="640" y="771"/>
      <point x="771" y="587"/>
    </contour>
  </outline>
</glyph>
<glyph name="P" format="1">
  <advance width="611"/>
  <unicode hex="0050"/>
  <outline>
    <contour>
      <point x="616" y="540" type="curve" smooth="yes"/>
      <point x="616" y="396"/>
      <point x="484" y="299"/>
      <point x="337" y="299" type="curve" smooth="yes"/>
      <point x="315" y="299"/>
      <point x="296" y="300"/>
      <point x="277" y="301" type="curve" smooth="no"/>
      <point x="266" y="351" type="line" smooth="no"/>
      <point x="298" y="352" type="line" smooth="yes"/>
      <point x="428" y="356"/>
      <point x="491" y="410"/>
      <point x="491" y="518" type="curve" smooth="yes"/>
      <point x="491" y="621"/>
      <point x="438.058" y="710"/>
      <point x="300" y="710" type="curve" smooth="yes"/>
      <point x="275" y="710"/>
      <point x="238" y="706"/>
      <point x="238" y="706" type="curve" smooth="no"/>
      <point x="238" y="74" type="line" smooth="no"/>
      <point x="381" y="51" type="line" smooth="no"/>
      <point x="373" y="0" type="line" smooth="no"/>
      <point x="14" y="0" type="line" smooth="no"/>
      <point x="20" y="45" type="line" smooth="no"/>
      <point x="122" y="73" type="line" smooth="no"/>
      <point x="122" y="669" type="line" smooth="no"/>
      <point x="18" y="687" type="line" smooth="no"/>
      <point x="24" y="733" type="line" smooth="no"/>
      <point x="102" y="745"/>
      <point x="210" y="760"/>
      <point x="313" y="760" type="curve" smooth="yes"/>
      <point x="471" y="760"/>
      <point x="616" y="717"/>
    </contour>
  </outline>
</glyph>
<glyph name="R" format="1">
  <advance width="735"/>
  <unicode hex="0052"/>
  <outline>
    <contour>
      <point x="604" y="571" type="curve" smooth="yes"/>
      <point x="604" y="493"/>
      <point x="545" y="404"/>
      <point x="431" y="363" type="curve" smooth="no"/>
      <point x="431" y="362" type="line" smooth="no"/>
      <point x="540" y="211" type="line" smooth="yes"/>
      <point x="611" y="113"/>
      <point x="642" y="70"/>
      <point x="717" y="47" type="curve" smooth="yes"/>
      <point x="737" y="41" type="line" smooth="no"/>
      <point x="728" y="-1" type="line" smooth="no"/>
      <point x="702" y="-10"/>
      <point x="678" y="-13"/>
      <point x="655" y="-13" type="curve" smooth="yes"/>
      <point x="559" y="-13"/>
      <point x="493" y="59"/>
      <point x="440" y="153" type="curve" smooth="yes"/>
      <point x="343" y="325" type="line" smooth="no"/>
      <point x="238" y="325" type="line" smooth="no"/>
      <point x="238" y="76" type="line" smooth="no"/>
      <point x="352" y="50" type="line" smooth="no"/>
      <point x="346" y="0" type="line" smooth="no"/>
      <point x="14" y="0" type="line" smooth="no"/>
      <point x="20" y="45" type="line" smooth="no"/>
      <point x="122" y="73" type="line" smooth="no"/>
      <point x="122" y="667" type="line" smooth="no"/>
      <point x="18" y="685" type="line" smooth="no"/>
      <point x="24" y="731" type="line" smooth="no"/>
      <point x="113" y="745"/>
      <point x="211" y="759"/>
      <point x="301" y="759" type="curve" smooth="yes"/>
      <point x="481" y="759"/>
      <point x="604" y="712"/>
    </contour>
    <contour>
      <point x="358" y="380" type="line" smooth="no"/>
      <point x="418" y="400"/>
      <point x="479" y="451"/>
      <point x="479" y="537" type="curve" smooth="yes"/>
      <point x="479" y="636"/>
      <point x="418" y="708"/>
      <point x="311" y="708" type="curve" smooth="yes"/>
      <point x="268" y="708"/>
      <point x="238" y="705"/>
      <point x="238" y="705" type="curve" smooth="no"/>
      <point x="238" y="380" type="line" smooth="no"/>
    </contour>
  </outline>
</glyph>
<glyph name="U" format="1">
  <advance width="829"/>
  <unicode hex="0055"/>
  <outline>
    <contour>
      <point x="444" y="64" type="curve" smooth="yes"/>
      <point x="566" y="64"/>
      <point x="640.595" y="134.004"/>
      <point x="641" y="292" type="curve" smooth="yes"/>
      <point x="642" y="682" type="line" smooth="no"/>
      <point x="532" y="707" type="line" smooth="no"/>
      <point x="538" y="753" type="line" smooth="no"/>
      <point x="828" y="753" type="line" smooth="no"/>
      <point x="821" y="707" type="line" smooth="no"/>
      <point x="720" y="684" type="line" smooth="no"/>
      <point x="717" y="312" type="line" smooth="yes"/>
      <point x="715.288" y="93.9902"/>
      <point x="624" y="-16"/>
      <point x="414" y="-16" type="curve" smooth="yes"/>
      <point x="273.986" y="-16"/>
      <point x="117" y="29"/>
      <point x="117" y="284" type="curve" smooth="yes"/>
      <point x="117" y="682" type="line" smooth="no"/>
      <point x="5" y="707" type="line" smooth="no"/>
      <point x="13" y="753" type="line" smooth="no"/>
      <point x="341" y="753" type="line" smooth="no"/>
      <point x="335" y="707" type="line" smooth="no"/>
      <point x="233" y="684" type="line" smooth="no"/>
      <point x="233" y="309" type="line" smooth="yes"/>
      <point x="233" y="136"/>
      <point x="320" y="64"/>
    </contour>
  </outline>
</glyph>
<glyph name="V" format="1">
  <advance width="778"/>
  <unicode hex="0056"/>
  <outline>
    <contour>
      <point x="343" y="-15" type="line" smooth="no"/>
      <point x="89" y="682" type="line" smooth="no"/>
      <point x="1" y="707" type="line" smooth="no"/>
      <point x="7" y="753" type="line" smooth="no"/>
      <point x="332" y="753" type="line" smooth="no"/>
      <point x="326" y="707" type="line" smooth="no"/>
      <point x="224" y="684" type="line" smooth="no"/>
      <point x="413" y="152" type="line" smooth="no"/>
      <point x="607" y="682" type="line" smooth="no"/>
      <point x="496" y="707" type="line" smooth="no"/>
      <point x="501" y="753" type="line" smooth="no"/>
      <point x="777" y="753" type="line" smooth="no"/>
      <point x="772" y="707" type="line" smooth="no"/>
      <point x="693" y="684" type="line" smooth="no"/>
      <point x="435" y="3" type="line" smooth="no"/>
    </contour>
  </outline>
</glyph>
<glyph name="Z" format="1">
  <advance width="611"/>
  <unicode hex="005a"/>
  <outline>
    <contour>
      <point x="31" y="753" type="line" smooth="no"/>
      <point x="593" y="753" type="line" smooth="no"/>
      <point x="593" y="707" type="line" smooth="no"/>
      <point x="130" y="61" type="line" smooth="no"/>
      <point x="475" y="61" type="line" smooth="no"/>
      <point x="550" y="212" type="line" smooth="no"/>
      <point x="606" y="203" type="line" smooth="no"/>
      <point x="572" y="0" type="line" smooth="no"/>
      <point x="5" y="0" type="line" smooth="no"/>
      <point x="0" y="63" type="line" smooth="no"/>
      <point x="451" y="696" type="line" smooth="no"/>
      <point x="126" y="696" type="line" smooth="no"/>
      <point x="79" y="547" type="line" smooth="no"/>
      <point x="25" y="558" type="line" smooth="no"/>
    </contour>
  </outline>
</glyph>
<glyph name="b" format="1">
  <advance width="622"/>
  <unicode hex="0062"/>
  <outline>
    <contour>
      <point x="84" y="30" type="curve" smooth="no"/>
      <point x="84" y="671" type="line" smooth="no"/>
      <point x="-8" y="703" type="line" smooth="no"/>
      <point x="0" y="749" type="line" smooth="no"/>
      <point x="168" y="762" type="line" smooth="no"/>
      <point x="183" y="748" type="line" smooth="no"/>
      <point x="183" y="514" type="line" smooth="no"/>
      <point x="174" y="451" type="line" smooth="no"/>
      <point x="181" y="451" type="line" smooth="no"/>
      <point x="229" y="505"/>
      <point x="286" y="544"/>
      <point x="354" y="544" type="curve" smooth="yes"/>
      <point x="471" y="544"/>
      <point x="549" y="439"/>
      <point x="549" y="286" type="curve" smooth="yes"/>
      <point x="549" y="94"/>
      <point x="407" y="-14"/>
      <point x="250" y="-14" type="curve" smooth="yes"/>
      <point x="195" y="-14"/>
      <point x="133" y="-1"/>
    </contour>
    <contour>
      <point x="441" y="247" type="curve" smooth="yes"/>
      <point x="441" y="337"/>
      <point x="416" y="465"/>
      <point x="313" y="465" type="curve" smooth="yes"/>
      <point x="279" y="465"/>
      <point x="231" y="458"/>
      <point x="183" y="407" type="curve" smooth="no"/>
      <point x="183" y="94" type="line" smooth="no"/>
      <point x="208" y="69"/>
      <point x="258" y="53"/>
      <point x="311" y="53" type="curve" smooth="yes"/>
      <point x="380" y="53"/>
      <point x="441" y="112"/>
    </contour>
  </outline>
</glyph>
<glyph name="e" format="1">
  <advance width="505"/>
  <unicode hex="0065"/>
  <outline>
    <contour>
      <point x="438" y="273" type="curve" smooth="no"/>
      <point x="145" y="270" type="line" smooth="no"/>
      <point x="150" y="175"/>
      <point x="201" y="57"/>
      <point x="314" y="57" type="curve" smooth="yes"/>
      <point x="357" y="57"/>
      <point x="388" y="61"/>
      <point x="451" y="95" type="curve" smooth="no"/>
      <point x="464" y="63" type="line" smooth="no"/>
      <point x="416" y="13"/>
      <point x="345" y="-18"/>
      <point x="265" y="-18" type="curve" smooth="yes"/>
      <point x="151" y="-18"/>
      <point x="37" y="75"/>
      <point x="37" y="259" type="curve" smooth="yes"/>
      <point x="37" y="441"/>
      <point x="169" y="544"/>
      <point x="286" y="544" type="curve" smooth="yes"/>
      <point x="374" y="544"/>
      <point x="448" y="480"/>
      <point x="448" y="352" type="curve" smooth="yes"/>
      <point x="448" y="333"/>
      <point x="443" y="294"/>
    </contour>
    <contour>
      <point x="146" y="319" type="curve" smooth="no"/>
      <point x="336" y="332" type="line" smooth="no"/>
      <point x="339" y="342"/>
      <point x="340" y="362"/>
      <point x="340" y="372" type="curve" smooth="yes"/>
      <point x="340" y="444"/>
      <point x="314" y="485"/>
      <point x="256" y="485" type="curve" smooth="yes"/>
      <point x="207" y="485"/>
      <point x="152" y="437"/>
    </contour>
  </outline>
</glyph>
<glyph name="h" format="1">
  <advance width="646"/>
  <unicode hex="0068"/>
  <outline>
    <contour>
      <point x="542" y="363" type="curve" smooth="yes"/>
      <point x="542" y="69" type="line" smooth="no"/>
      <point x="630" y="48" type="line" smooth="no"/>
      <point x="623" y="0" type="line" smooth="no"/>
      <point x="351" y="0" type="line" smooth="no"/>
      <point x="358" y="45" type="line" smooth="no"/>
      <point x="440" y="69" type="line" smooth="no"/>
      <point x="442" y="347" type="line" smooth="no"/>
      <point x="442" y="351" type="line" smooth="yes"/>
      <point x="442" y="437"/>
      <point x="385" y="463"/>
      <point x="337" y="463" type="curve" smooth="yes"/>
      <point x="302" y="463"/>
      <point x="263" y="453"/>
      <point x="220" y="409" type="curve" smooth="no"/>
      <point x="220" y="70" type="line" smooth="no"/>
      <point x="309" y="49" type="line" smooth="no"/>
      <point x="302" y="0" type="line" smooth="no"/>
      <point x="20" y="0" type="line" smooth="no"/>
      <point x="27" y="48" type="line" smooth="no"/>
      <point x="120" y="70" type="line" smooth="no"/>
      <point x="120" y="671" type="line" smooth="no"/>
      <point x="23" y="703" type="line" smooth="no"/>
      <point x="30" y="749" type="line" smooth="no"/>
      <point x="205" y="763" type="line" smooth="no"/>
      <point x="220" y="748" type="line" smooth="no"/>
      <point x="220" y="515" type="line" smooth="no"/>
      <point x="210" y="451" type="line" smooth="no"/>
      <point x="217" y="451" type="line" smooth="no"/>
      <point x="267" y="507"/>
      <point x="327" y="546"/>
      <point x="395" y="546" type="curve" smooth="yes"/>
      <point x="479" y="546"/>
      <point x="542" y="510"/>
    </contour>
  </outline>
</glyph>
<glyph name="i" format="1">
  <advance width="347"/>
  <unicode hex="0069"/>
  <outline>
    <contour>
      <point x="178" y="790" type="curve" smooth="yes"/>
      <point x="218" y="790"/>
      <point x="252" y="760"/>
      <point x="252" y="721" type="curve" smooth="yes"/>
      <point x="252" y="680"/>
      <point x="218" y="647"/>
      <point x="178" y="647" type="curve" smooth="yes"/>
      <point x="138" y="647"/>
      <point x="106" y="681"/>
      <point x="106" y="722" type="curve" smooth="yes"/>
      <point x="106" y="761"/>
      <point x="140" y="790"/>
    </contour>
    <contour>
      <point x="37" y="48" type="line" smooth="no"/>
      <point x="129" y="70" type="line" smooth="no"/>
      <point x="129" y="443" type="line" smooth="no"/>
      <point x="37" y="476" type="line" smooth="no"/>
      <point x="45" y="522" type="line" smooth="no"/>
      <point x="215" y="536" type="line" smooth="no"/>
      <point x="230" y="521" type="line" smooth="no"/>
      <point x="230" y="70" type="line" smooth="no"/>
      <point x="327" y="49" type="line" smooth="no"/>
      <point x="320" y="0" type="line" smooth="no"/>
      <point x="30" y="0" type="line" smooth="no"/>
    </contour>
  </outline>
</glyph>
<glyph name="k" format="1">
  <advance width="607"/>
  <unicode hex="006b"/>
  <outline>
    <contour>
      <point x="244" y="274" type="line" smooth="no"/>
      <point x="401" y="470" type="line" smooth="no"/>
      <point x="320" y="495" type="line" smooth="no"/>
      <point x="327" y="541" type="line" smooth="no"/>
      <point x="584" y="541" type="line" smooth="no"/>
      <point x="576" y="496" type="line" smooth="no"/>
      <point x="485" y="471" type="line" smooth="no"/>
      <point x="342" y="295" type="line" smooth="no"/>
      <point x="390" y="234" type="line" smooth="yes"/>
      <point x="479" y="121"/>
      <point x="511" y="60"/>
      <point x="587" y="50" type="curve" smooth="yes"/>
      <point x="611" y="47" type="line" smooth="no"/>
      <point x="604" y="0" type="line" smooth="no"/>
      <point x="595" y="-3"/>
      <point x="559" y="-12"/>
      <point x="532" y="-12" type="curve" smooth="yes"/>
      <point x="452" y="-12"/>
      <point x="407" y="40"/>
      <point x="308" y="174" type="curve" smooth="no"/>
      <point x="244" y="262" type="line" smooth="no"/>
    </contour>
    <contour>
      <point x="36" y="48" type="line" smooth="no"/>
      <point x="128" y="70" type="line" smooth="no"/>
      <point x="128" y="671" type="line" smooth="no"/>
      <point x="33" y="703" type="line" smooth="no"/>
      <point x="40" y="749" type="line" smooth="no"/>
      <point x="214" y="763" type="line" smooth="no"/>
      <point x="229" y="748" type="line" smooth="no"/>
      <point x="229" y="713" type="line" smooth="no"/>
      <point x="229" y="70" type="line" smooth="no"/>
      <point x="326" y="49" type="line" smooth="no"/>
      <point x="319" y="0" type="line" smooth="no"/>
      <point x="29" y="0" type="line" smooth="no"/>
    </contour>
  </outline>
</glyph>
<glyph name="m" format="1">
  <advance width="969"/>
  <unicode hex="006d"/>
  <outline>
    <contour>
      <point x="539" y="443" type="curve" smooth="no"/>
      <point x="546" y="443" type="line" smooth="no"/>
      <point x="585" y="493"/>
      <point x="649" y="538"/>
      <point x="725" y="538" type="curve" smooth="yes"/>
      <point x="826" y="538"/>
      <point x="868" y="474"/>
      <point x="868" y="369" type="curve" smooth="yes"/>
      <point x="868" y="70" type="line" smooth="no"/>
      <point x="952" y="49" type="line" smooth="no"/>
      <point x="944" y="1" type="line" smooth="no"/>
      <point x="686" y="1" type="line" smooth="no"/>
      <point x="691" y="45" type="line" smooth="no"/>
      <point x="766" y="69" type="line" smooth="no"/>
      <point x="766" y="354" type="line" smooth="yes"/>
      <point x="766" y="412"/>
      <point x="730" y="460"/>
      <point x="665" y="460" type="curve" smooth="yes"/>
      <point x="611" y="460"/>
      <point x="577" y="430"/>
      <point x="549" y="400" type="curve" smooth="no"/>
      <point x="549" y="69" type="line" smooth="no"/>
      <point x="639" y="48" type="line" smooth="no"/>
      <point x="633" y="0" type="line" smooth="no"/>
      <point x="364" y="0" type="line" smooth="no"/>
      <point x="371" y="45" type="line" smooth="no"/>
      <point x="450" y="69" type="line" smooth="no"/>
      <point x="450" y="354" type="line" smooth="yes"/>
      <point x="450" y="418"/>
      <point x="405" y="460"/>
      <point x="347" y="460" type="curve" smooth="yes"/>
      <point x="302" y="460"/>
      <point x="258" y="443"/>
      <point x="227" y="408" type="curve" smooth="no"/>
      <point x="227" y="69" type="line" smooth="no"/>
      <point x="314" y="48" type="line" smooth="no"/>
      <point x="308" y="0" type="line" smooth="no"/>
      <point x="28" y="0" type="line" smooth="no"/>
      <point x="34" y="45" type="line" smooth="no"/>
      <point x="125" y="69" type="line" smooth="no"/>
      <point x="125" y="436" type="line" smooth="no"/>
      <point x="28" y="466" type="line" smooth="no"/>
      <point x="34" y="512" type="line" smooth="no"/>
      <point x="218" y="537" type="line" smooth="no"/>
      <point x="229" y="525" type="line" smooth="no"/>
      <point x="218" y="448" type="line" smooth="no"/>
      <point x="224" y="448" type="line" smooth="no"/>
      <point x="263" y="496"/>
      <point x="330" y="543"/>
      <point x="406" y="543" type="curve" smooth="yes"/>
      <point x="461" y="543"/>
      <point x="520" y="517"/>
    </contour>
  </outline>
</glyph>
<glyph name="t" format="1">
  <advance width="387"/>
  <unicode hex="0074"/>
  <outline>
    <contour>
      <point x="166" y="659" type="curve" smooth="no"/>
      <point x="198" y="659" type="line" smooth="no"/>
      <point x="198" y="526" type="line" smooth="no"/>
      <point x="369" y="526" type="line" smooth="no"/>
      <point x="364" y="473" type="line" smooth="no"/>
      <point x="197" y="473" type="line" smooth="no"/>
      <point x="195" y="197" type="line" smooth="no"/>
      <point x="195" y="193" type="line" smooth="yes"/>
      <point x="195" y="102"/>
      <point x="222" y="72"/>
      <point x="284" y="72" type="curve" smooth="yes"/>
      <point x="329" y="72"/>
      <point x="374" y="108"/>
      <point x="374" y="108" type="curve" smooth="no"/>
      <point x="387" y="75" type="line" smooth="no"/>
      <point x="345" y="27"/>
      <point x="303" y="-14"/>
      <point x="220" y="-14" type="curve" smooth="yes"/>
      <point x="146" y="-14"/>
      <point x="91" y="22"/>
      <point x="91" y="157" type="curve" smooth="yes"/>
      <point x="91" y="176" type="line" smooth="no"/>
      <point x="93" y="474" type="line" smooth="no"/>
      <point x="16" y="474" type="line" smooth="no"/>
      <point x="16" y="507" type="line" smooth="no"/>
      <point x="66" y="546"/>
      <point x="123" y="605"/>
    </contour>
  </outline>
</glyph>
<glyph name="u" format="1">
  <advance width="624"/>
  <unicode hex="0075"/>
  <outline>
    <contour>
      <point x="413" y="79" type="line" smooth="no"/>
      <point x="406" y="79" type="line" smooth="no"/>
      <point x="364" y="17"/>
      <point x="305" y="-14"/>
      <point x="232" y="-14" type="curve" smooth="yes"/>
      <point x="154" y="-14"/>
      <point x="97" y="32"/>
      <point x="97" y="162" type="curve" smooth="yes"/>
      <point x="97" y="441" type="line" smooth="no"/>
      <point x="14" y="474" type="line" smooth="no"/>
      <point x="22" y="522" type="line" smooth="no"/>
      <point x="185" y="535" type="line" smooth="no"/>
      <point x="199" y="520" type="line" smooth="no"/>
      <point x="199" y="192" type="line" smooth="yes"/>
      <point x="199" y="101"/>
      <point x="238" y="69"/>
      <point x="293" y="69" type="curve" smooth="yes"/>
      <point x="348" y="69"/>
      <point x="380" y="89"/>
      <point x="406" y="116" type="curve" smooth="no"/>
      <point x="406" y="438" type="line" smooth="no"/>
      <point x="309" y="463" type="line" smooth="no"/>
      <point x="315" y="518" type="line" smooth="no"/>
      <point x="493" y="535" type="line" smooth="no"/>
      <point x="506" y="520" type="line" smooth="no"/>
      <point x="506" y="130" type="line" smooth="yes"/>
      <point x="506" y="69"/>
      <point x="532" y="63"/>
      <point x="572" y="54" type="curve" smooth="yes"/>
      <point x="599" y="48" type="line" smooth="no"/>
      <point x="594" y="-3" type="line" smooth="no"/>
      <point x="556" y="-12"/>
      <point x="538" y="-14"/>
      <point x="502" y="-14" type="curve" smooth="yes"/>
      <point x="441" y="-14"/>
      <point x="413" y="24"/>
      <point x="413" y="74" type="curve" smooth="yes"/>
    </contour>
  </outline>
</glyph>
<glyph name="braceleft" format="1">
  <advance width="345"/>
  <unicode hex="007b"/>
  <outline>
    <contour>
      <point x="274" y="-227" type="line" smooth="no"/>
      <point x="133" y="-227" type="line" smooth="no"/>
      <point x="119" y="-214" type="line" smooth="no"/>
      <point x="119" y="-214"/>
      <point x="102" y="21"/>
      <point x="100" y="250" type="curve" smooth="no"/>
      <point x="13" y="250" type="line" smooth="no"/>
      <point x="20" y="320" type="line" smooth="no"/>
      <point x="100" y="320" type="line" smooth="no"/>
      <point x="101" y="561"/>
      <point x="120" y="747"/>
      <point x="120" y="747" type="curve" smooth="no"/>
      <point x="137" y="760" type="line" smooth="no"/>
      <point x="279" y="760" type="line" smooth="no"/>
      <point x="274" y="698" type="line" smooth="no"/>
      <point x="199" y="696" type="line" smooth="no"/>
      <point x="199" y="696"/>
      <point x="180" y="508"/>
      <point x="180" y="296" type="curve" smooth="yes"/>
      <point x="180" y="84"/>
      <point x="199" y="-157"/>
      <point x="199" y="-157" type="curve" smooth="no"/>
      <point x="281" y="-159" type="line" smooth="no"/>
    </contour>
  </outline>
</glyph>
<glyph name="bar" format="1">
  <advance width="345"/>
  <unicode hex="007c"/>
  <outline>
    <contour>
      <point x="211" y="-220" type="line" smooth="no"/>
      <point x="141" y="-212" type="line" smooth="no"/>
      <point x="141" y="760" type="line" smooth="no"/>
      <point x="211" y="753" type="line" smooth="no"/>
    </contour>
  </outline>
</glyph>
<glyph name="asciitilde" format="1">
  <advance width="345"/>
  <unicode hex="007e"/>
  <outline>
    <contour>
      <point x="0" y="250" type="line" smooth="no"/>
      <point x="36" y="319"/>
      <point x="76" y="355"/>
      <point x="116" y="355" type="curve" smooth="yes"/>
      <point x="174" y="355"/>
      <point x="223" y="310"/>
      <point x="264" y="310" type="curve" smooth="yes"/>
      <point x="278" y="310"/>
      <point x="298" y="333"/>
      <point x="307" y="347" type="curve" smooth="no"/>
      <point x="345" y="334" type="line" smooth="no"/>
      <point x="330" y="273"/>
      <point x="266" y="226"/>
      <point x="234" y="226" type="curve" smooth="yes"/>
      <point x="183" y="226"/>
      <point x="140" y="272"/>
      <point x="93" y="272" type="curve" smooth="yes"/>
      <point x="73" y="272"/>
      <point x="58" y="253"/>
      <point x="41" y="230" type="curve" smooth="no"/>
    </contour>
  </outline>
</glyph>
